PathFileType	4	(X/Y/Z)	s01c0201.trc
DataRate	CameraRate	NumFrames	NumMarkers	Units	OrigDataRate	OrigDataStartFrame	OrigNumFrames
200	200	6	48	mm	200	1500	2000
Frame#	Time	racr			lacr			c7			jug			rlel			rdr			llel			ldr			s2			lic			ric			lasi			rasi			rpsi			lpsi			rgt			lgt			rth1			rth2			rth3			rth4			rlfc			rsh1			rsh2			rsh3			rsh4			rlmal			rmmal			rcal			rtoe			rmt5			lth1			lth2			lth4			lth3			llfc			lsh1			lsh2			lsh3			lsh4			llmal			lmmal			lcal			ltoe			lmt5			SBIKE			LBIKE			RBIKE			
		X1	Y1	Z1	X2	Y2	Z2	X3	Y3	Z3	X4	Y4	Z4	X5	Y5	Z5	X6	Y6	Z6	X7	Y7	Z7	X8	Y8	Z8	X9	Y9	Z9	X10	Y10	Z10	X11	Y11	Z11	X12	Y12	Z12	X13	Y13	Z13	X14	Y14	Z14	X15	Y15	Z15	X16	Y16	Z16	X17	Y17	Z17	X18	Y18	Z18	X19	Y19	Z19	X20	Y20	Z20	X21	Y21	Z21	X22	Y22	Z22	X23	Y23	Z23	X24	Y24	Z24	X25	Y25	Z25	X26	Y26	Z26	X27	Y27	Z27	X28	Y28	Z28	X29	Y29	Z29	X30	Y30	Z30	X31	Y31	Z31	X32	Y32	Z32	X33	Y33	Z33	X34	Y34	Z34	X35	Y35	Z35	X36	Y36	Z36	X37	Y37	Z37	X38	Y38	Z38	X39	Y39	Z39	X40	Y40	Z40	X41	Y41	Z41	X42	Y42	Z42	X43	Y43	Z43	X44	Y44	Z44	X45	Y45	Z45	X46	Y46	Z46	X47	Y47	Z47	X48	Y48	Z48	
1500	7.5000	537.070862	1240.713989	-98.615509	526.581909	1228.545044	-463.783142	513.175537	1354.682861	-277.208649	499.702393	1186.338013	-274.113739	479.375854	995.401672	52.802555	655.511353	872.053467	-53.818947	454.418854	959.336914	-559.941589	654.322083	878.120544	-445.220215	-15.530560	1153.133911	-235.653015	127.785446	1164.411865	-425.033203	157.426041	1158.895752	-95.024910	136.140518	1110.585815	-403.498199	183.469101	1120.922729	-125.845955	18.341141	1194.820435	-186.867432	5.037472	1197.459839	-290.218781	120.899071	1062.603516	-56.323872	72.927292	1017.734741	-435.144745	242.706039	1014.478333	-54.041595	321.888214	992.859192	-66.767014	405.379242	962.859436	-84.985329	335.067108	1042.056396	-90.586250	476.378906	887.792358	-117.699677	394.162628	811.114502	-80.555107	337.011902	748.345337	-82.260185	271.328247	688.808838	-87.834923	369.696411	715.714417	-121.449158	173.980133	619.359863	-97.355888	209.860001	595.833618	-176.122284	131.086212	635.965088	-153.265457	247.944748	390.833954	-135.219955	172.547577	468.502075	-67.627144	127.020988	898.742188	-436.022644	189.964233	835.545410	-436.412567	229.642929	872.952209	-437.148132	244.158737	771.227600	-418.177551	304.485504	671.005432	-402.150757	258.204590	570.515564	-438.190887	246.240158	484.575623	-432.862915	231.658859	400.677216	-420.134460	301.281219	479.137115	-405.555328	288.224487	247.031265	-342.887024	243.002594	298.280365	-327.563934	164.213974	241.372849	-364.931183	438.175751	203.939331	-373.145691	332.368652	184.653809	-438.961639	-223.190201	893.503357	-249.245056	-12.126040	84.426521	-453.784302	-20.269352	80.861320	-53.750179	
1501	7.5050	536.222656	1241.848267	-96.983414	527.404480	1229.079102	-462.697876	513.041077	1355.249512	-276.025452	499.975830	1187.144043	-272.827850	479.576721	996.352051	54.441612	655.496338	872.424866	-53.288467	454.970978	960.095093	-559.624695	654.540894	878.056335	-444.969574	-15.376081	1152.844482	-235.862198	127.548080	1163.433350	-424.502411	157.450287	1159.309326	-94.771736	136.156555	1110.192383	-403.583557	183.690536	1121.655396	-126.258041	18.422132	1194.543945	-187.124207	5.115808	1197.327759	-290.381012	120.978096	1063.017212	-56.186874	71.930000	1017.575928	-435.226715	242.862717	1016.451965	-53.437546	322.350677	996.806458	-66.504128	406.364319	968.910156	-84.724289	334.052460	1046.689453	-89.367508	479.412354	896.644653	-117.987297	397.824677	819.943604	-80.975975	341.075714	757.405090	-82.769722	275.403168	697.630859	-88.466743	374.472626	725.199951	-120.503357	177.974869	626.835205	-98.654953	213.929596	604.119446	-177.578827	134.138214	641.388000	-154.306229	259.047180	400.599915	-134.049683	180.259995	475.535187	-68.053688	123.744728	897.989258	-436.878815	185.152176	833.387085	-438.341797	225.591171	869.926392	-438.118805	238.093185	767.760681	-419.937805	295.857269	666.069824	-403.886475	249.062286	566.022949	-439.753601	236.999466	480.128113	-433.754486	222.334641	396.258575	-420.728302	292.395325	474.588928	-407.162872	275.725525	245.423828	-346.409943	235.345688	293.613708	-328.186768	155.924713	237.034210	-365.064331	429.456085	197.466873	-373.362396	323.432770	178.755859	-439.124542	-223.245117	893.491760	-249.266663	-12.143811	84.421707	-453.798431	-20.280540	80.892014	-53.751476	
1502	7.5100	535.372620	1242.910889	-95.189575	528.251404	1229.694458	-461.458160	512.967896	1355.779297	-274.699158	500.367645	1187.858887	-271.556061	479.817688	997.261169	55.892673	655.491577	872.794250	-52.773827	455.511383	960.857239	-559.194763	654.671570	878.093994	-444.660828	-15.311127	1152.704712	-236.072906	127.693237	1162.499268	-424.133270	157.392334	1159.899048	-94.520584	136.168961	1109.959839	-403.694580	183.697144	1122.357788	-126.297203	18.444899	1194.380371	-187.377716	5.181337	1197.348267	-290.565125	120.987190	1063.506470	-56.034924	70.923203	1017.589355	-435.451904	242.703186	1018.447998	-53.018288	322.435760	1000.563293	-66.285149	406.746948	974.794495	-84.229271	333.084839	1050.910034	-88.661926	482.234467	905.386841	-118.071907	401.205750	828.961304	-81.711411	344.646698	766.260742	-83.312866	279.151825	706.123840	-89.077438	378.321259	733.244202	-120.962669	181.980850	633.356201	-100.030617	218.372269	611.239868	-178.112930	137.468918	646.008240	-155.433655	269.760468	409.000122	-134.288757	188.291748	481.871521	-68.491554	120.519104	897.515137	-437.793854	180.443451	831.705688	-439.599884	221.819183	867.343445	-439.577789	232.156235	764.964783	-420.953247	287.503723	661.829956	-405.708160	240.173828	562.101807	-441.076660	227.837418	476.160065	-434.743774	212.927246	392.491730	-421.315613	283.538696	470.503967	-408.893311	262.867157	244.468552	-350.113068	227.525543	289.446716	-328.800934	147.428207	233.631744	-365.199249	420.532654	191.462326	-373.540070	314.359070	173.492249	-439.186157	-223.310425	893.496765	-249.335480	-12.158396	84.418282	-453.808563	-20.291330	80.884781	-53.749168	
1503	7.5150	534.566467	1243.817505	-93.394203	529.169556	1230.366455	-460.119965	513.000671	1356.323853	-273.347504	500.600555	1188.462402	-270.107605	480.057556	998.071167	57.244328	655.537170	873.188843	-52.310829	456.058807	961.859924	-558.734619	654.807068	878.160645	-444.356171	-15.302327	1152.778809	-236.257065	128.503799	1161.790405	-424.002136	157.237106	1160.605591	-94.219681	136.167313	1109.891968	-403.836273	183.593246	1123.093994	-126.335892	18.417610	1194.357666	-187.643799	5.231977	1197.528931	-290.768829	120.920288	1064.033081	-55.906139	69.755325	1017.730225	-435.490326	242.260376	1020.554077	-52.841305	322.299561	1004.206299	-66.032974	406.776459	980.021301	-84.131546	332.069458	1054.969360	-88.200256	484.872681	913.602966	-118.227493	404.166443	837.572998	-82.128471	347.897430	774.680664	-83.750473	282.707306	714.112671	-89.676964	382.143860	741.200439	-120.752266	186.281937	638.832397	-101.656723	223.763641	617.691711	-179.054657	141.300522	649.867737	-156.792923	280.493256	416.824890	-134.166077	196.839401	487.879730	-68.521873	117.345261	897.331604	-438.720062	175.900497	830.119507	-440.770386	218.349411	865.103638	-441.024780	226.348831	762.652527	-422.321747	279.639465	658.252075	-407.452057	231.654968	558.629028	-442.459625	218.784470	472.912354	-435.655518	203.690811	389.179871	-421.685181	274.854431	467.014435	-410.700928	249.734543	244.151260	-353.957214	219.574371	285.794403	-329.399567	138.804123	230.963058	-365.277618	411.380127	185.929047	-373.694305	304.996613	168.923248	-439.361816	-223.351852	893.506836	-249.369781	-12.171155	84.413010	-453.787170	-20.305809	80.907158	-53.749138	
1504	7.5200	533.733398	1244.752686	-91.457703	530.161133	1230.999390	-458.636047	513.109802	1356.828735	-271.892853	500.785828	1188.988525	-268.842224	480.184448	998.805420	58.576973	655.617615	873.513916	-51.861763	456.560638	962.927429	-558.281921	654.956177	878.307434	-444.062347	-15.353783	1152.989868	-236.456680	129.361771	1161.100220	-423.849182	156.890320	1161.329834	-94.265816	136.142578	1109.992065	-404.014709	183.325119	1124.041382	-126.296204	18.331417	1194.474731	-187.894989	5.262164	1197.869507	-290.992188	120.731544	1064.656250	-56.391647	68.729187	1018.201538	-435.847656	241.580429	1022.721680	-53.061581	321.990234	1007.776550	-65.971359	406.926422	985.146851	-83.998306	331.068756	1058.810181	-87.882957	486.642090	921.564880	-118.125015	406.724731	845.723083	-82.545181	350.923737	782.437683	-84.216980	286.191803	721.526978	-90.205093	385.892273	748.864014	-120.300964	191.097931	643.385254	-103.037529	229.286209	623.339111	-179.961258	145.110245	652.793274	-158.000458	291.406525	424.137909	-133.837585	205.190155	492.811584	-69.309509	114.266945	897.364563	-439.619965	171.494034	828.832275	-441.794220	214.634735	863.270142	-442.564209	220.829681	760.628540	-423.662323	272.198730	655.389465	-409.231354	223.291855	555.870972	-443.833557	210.022842	470.257446	-436.550354	194.541046	386.626343	-422.194244	266.347656	464.057831	-412.472137	236.412781	244.457840	-357.903198	211.524338	282.671753	-329.975708	130.055466	229.189331	-365.402130	402.026215	180.865860	-373.903076	295.434906	164.967606	-439.390991	-223.423523	893.523315	-249.395401	-12.182751	84.447731	-453.802826	-20.316429	80.901039	-53.775330	
1505	7.5250	532.951660	1245.599731	-89.519028	531.195679	1231.645386	-457.026794	513.283081	1357.254028	-270.323303	500.937988	1189.698730	-267.203308	480.284637	999.305542	59.840561	655.738220	873.771790	-51.530407	457.149933	964.270996	-558.014648	655.133850	878.471741	-443.809265	-15.464972	1153.306885	-236.722046	130.023926	1160.506226	-423.243011	156.705429	1162.464111	-93.784401	136.080780	1110.278442	-404.273041	182.934097	1125.104126	-126.323792	18.166357	1194.728027	-188.133194	5.266485	1198.369385	-291.242920	120.608589	1065.703613	-56.246208	67.579666	1018.840332	-436.230560	240.744049	1025.000122	-53.485622	321.504089	1011.220032	-66.113335	406.874451	989.958008	-84.021133	330.055634	1062.485840	-87.726860	488.041412	929.171631	-117.966438	409.008148	853.376648	-83.178986	353.714325	789.825745	-84.596840	289.367920	728.296692	-90.561600	389.518097	755.970886	-119.730721	195.676270	647.431824	-104.297356	235.264496	628.201904	-181.203339	149.327759	654.841797	-159.362076	302.421814	430.878387	-133.660065	214.024612	497.259583	-69.638672	111.353561	897.623596	-440.516602	167.344696	828.004395	-442.942352	211.086868	861.782471	-444.361176	215.372192	759.092712	-425.699646	265.355743	653.118103	-410.922150	215.132156	553.807434	-445.096283	201.482452	468.353729	-437.370453	185.715424	384.783051	-422.620270	258.121918	461.844666	-414.110046	222.987015	245.374161	-361.911774	203.407623	280.093842	-330.522522	121.183350	228.229095	-365.573029	392.490082	176.446442	-374.112183	285.601501	161.727951	-439.533569	-223.487106	893.497070	-249.422501	-12.186204	84.428429	-453.808655	-20.322958	80.909035	-53.769360	
